<?xml version="1.0" encoding="UTF-8" standalone="no"?>
<!-- Created with Inkscape (http://www.inkscape.org/) -->

<svg
   width="176.32654mm"
   height="43.897205mm"
   viewBox="0 0 176.32654 43.897206"
   version="1.1"
   id="svg5"
   xml:space="preserve"
   sodipodi:docname="logo.svg"
   inkscape:version="1.2.2 (b0a8486541, 2022-12-01)"
   xmlns:inkscape="http://www.inkscape.org/namespaces/inkscape"
   xmlns:sodipodi="http://sodipodi.sourceforge.net/DTD/sodipodi-0.dtd"
   xmlns="http://www.w3.org/2000/svg"
   xmlns:svg="http://www.w3.org/2000/svg"><sodipodi:namedview
     id="namedview7"
     pagecolor="#ffffff"
     bordercolor="#000000"
     borderopacity="0.25"
     inkscape:showpageshadow="2"
     inkscape:pageopacity="0.0"
     inkscape:pagecheckerboard="0"
     inkscape:deskcolor="#d1d1d1"
     inkscape:document-units="mm"
     showgrid="false"
     inkscape:zoom="2.1584099"
     inkscape:cx="145.47747"
     inkscape:cy="146.86738"
     inkscape:window-width="1920"
     inkscape:window-height="1011"
     inkscape:window-x="0"
     inkscape:window-y="0"
     inkscape:window-maximized="1"
     inkscape:current-layer="layer1" /><defs
     id="defs2" /><g
     inkscape:label="Capa 1"
     inkscape:groupmode="layer"
     id="layer1"
     transform="translate(-22.596404,-126.51566)"><rect
       style="opacity:1;fill:#ffffff;fill-opacity:1;stroke:#0d1117;stroke-width:6.636;stroke-linecap:round;stroke-linejoin:miter;stroke-dasharray:none;stroke-opacity:1;paint-order:markers stroke fill"
       id="rect3257"
       width="22.524855"
       height="22.525215"
       x="33.667576"
       y="137.20166" /><path
       id="path1281"
       style="fill:#ffffff;stroke:#0d1117;stroke-width:6.1;stroke-dasharray:none;stroke-opacity:1;paint-order:markers stroke fill;stroke-linejoin:round;stroke-linecap:square"
       d="m 71.787021,137.20165 -0.752856,21.81251 h 1.704692 1.704681 l 0.162865,-6.43988 h -6.38e-4 l 0.162229,-6.44052 1.152731,3.14891 1.152717,3.14829 1.519017,0.17553 1.519642,0.17617 1.039284,-3.03841 1.039297,-3.03779 -0.02477,12.37464 2.368825,-0.0669 h 1.436621 v -21.75316 h -1.589984 -1.589982 l -1.961346,4.87585 -2.463876,5.49843 -3.273128,-10.08825 -1.890993,-0.17238 z m 67.041659,0.0201 v 10.89584 10.89647 h 3.5133 3.51456 l 2.77313,-0.98123 2.77376,-0.98186 0.38909,-3.62058 0.38975,-3.6187 -0.99303,-1.09298 -0.9924,-1.09236 0.71864,-2.78837 0.71672,-2.78837 -0.80481,-1.67264 -0.80418,-1.67264 -2.58111,-0.35549 -2.58111,-0.35423 -3.01585,-0.38707 z m 19.66219,0.0379 -1.1863,1.00208 -1.18505,1.00144 -0.37895,8.58735 -0.3796,8.58672 1.35678,1.23065 1.35804,1.23127 1.14893,0.30624 1.14892,0.30562 2.58555,-0.24625 2.58554,-0.24691 0.92205,-1.10814 0.92396,-1.1094 0.40811,-8.01403 0.40875,-8.01466 -0.91952,-1.39734 -0.91889,-1.39797 -2.13625,-0.35108 -2.1356,-0.35234 -1.80354,-0.006 z m -69.646853,9.8e-4 v 10.87627 10.87689 h 6.894777 6.894116 v -1.43079 -1.43145 h -5.171065 -5.17043 v -3.43494 -3.43431 h 3.159677 3.160307 v -1.43143 -1.43081 h -3.160307 -3.159677 v -3.14891 -3.14827 h 5.17043 5.171065 v -1.43145 -1.4308 h -6.894116 z m 32.748303,0 v 10.87627 10.87689 h 1.7237 1.7237 v -4.86573 -4.86576 h 3.4474 3.44739 v 4.86576 4.86573 h 1.72307 1.7237 V 148.1369 137.26063 h -1.7237 -1.72307 v 4.57972 4.57971 h -3.44739 -3.4474 v -4.57971 -4.57972 h -1.7237 z m 48.73695,0 2.16285,3.86369 2.16222,3.86429 0.99241,1.63666 0.99239,1.63601 -2.03359,3.51578 -2.03357,3.51576 -1.14449,1.90247 -1.1445,1.90186 1.91319,-0.18438 1.91318,-0.185 2.11914,-3.65974 2.11976,-3.65972 2.19455,3.80306 2.19518,3.80242 h 1.60139 1.6014 v -0.29045 -0.29108 l -2.90811,-5.09558 -2.90748,-5.09559 2.90748,-5.13916 2.90811,-5.13979 v -0.35107 -0.35044 h -1.59126 -1.59062 c -1.45178,2.69416 -4.40366,8.04118 -4.40366,8.04118 l -2.37897,-4.35114 -2.1299,-3.69004 h -1.75855 z m -63.60765,0.57207 -0.26425,0.42936 -0.26363,0.42937 -0.37959,3.14892 -0.38023,3.14826 5.08554,3.20765 5.08554,3.20826 -0.22686,2.37351 -0.22751,2.37352 h -3.39923 -3.3986 l -0.65906,-1.44027 -0.65907,-1.4409 -1.34537,1.25968 -1.346,1.26032 1.55006,1.61139 1.54943,1.61202 h 4.30037 4.29974 l 1.05196,-0.94712 1.0507,-0.94778 v -3.7961 -3.79549 l -4.87325,-2.84204 -4.87325,-2.84141 -0.011,-0.66867 -0.011,-0.66869 0.34917,-0.90609 0.34855,-0.90545 h 3.32445 3.32382 l 0.36122,0.93703 0.36059,0.9364 1.10898,-0.99955 1.10838,-1.00018 -0.89923,-1.36766 -0.89988,-1.36829 h -5.07098 z m 34.97968,2.14494 2.93409,0.28036 2.93345,0.28098 0.45121,0.72677 0.45119,0.72803 -0.49492,1.71811 -0.49367,1.71873 -0.16159,0.12755 -0.16159,0.12817 -2.7294,0.3555 -2.72877,0.35549 v -3.20954 z m 17.87893,0.14524 1.83269,0.017 1.83333,0.0178 1.03677,0.78233 1.03611,0.78422 -0.3986,7.15656 -0.39925,7.15782 -1.71482,0.34224 -1.71484,0.34096 h -0.4138 -0.41318 l -1.02979,-1.13151 -1.02914,-1.1334 0.41507,-6.72972 0.41635,-6.72971 0.27188,-0.43758 z m -17.87893,9.15942 h 3.44739 3.44676 v 3.08135 3.08135 l -1.29213,0.34538 -1.29278,0.34603 -2.15462,0.009 -2.15462,0.007 v -3.4362 z" /><path
       style="fill:#000000;stroke-width:2.15724"
       id="path2908"
       d="" /><path
       style="fill:#000000;stroke-width:2.15724"
       id="path2906"
       d="" /><path
       style="fill:#000000;stroke-width:2.15724"
       id="path2904"
       d="" /><path
       id="path3123"
       style="opacity:1;fill:#ff5630;fill-opacity:1;stroke:none;stroke-width:0.804449;stroke-linecap:round;stroke-linejoin:round;stroke-dasharray:none;stroke-opacity:1;paint-order:markers stroke fill"
       d="m 33.667576,137.20165 v 11.26261 11.26261 h 0.762367 0.762366 v -10.50024 -10.50025 h 2.980095 2.980454 v 5.99542 5.99505 h 3.742461 3.742462 v -0.72786 -0.72786 h -2.980096 -2.980094 v -6.02956 -6.02992 h -4.505187 z m 16.495297,0 v 0.76237 0.76236 h 3.014599 3.014961 v -0.76236 -0.76237 h -3.014961 z" /><path
       id="path3197"
       style="opacity:1;fill:#ff9175;fill-opacity:1;stroke:none;stroke-width:0.804449;stroke-linecap:round;stroke-linejoin:round;stroke-dasharray:none;stroke-opacity:1;paint-order:markers stroke fill"
       d="m 45.657685,137.20165 v 3.77733 3.77732 h 0.762367 0.762366 v -3.77732 -3.77733 h -0.762366 z m -10.465376,1.52473 v 10.50025 10.50024 h 10.499882 10.500242 v -10.50024 -10.50025 h -3.014961 -3.014599 v 5.26756 5.26719 h -0.762727 -0.762365 v 0.72786 0.72786 h -3.742462 -3.742461 v -5.99505 -5.99542 h -2.980454 z m 10.465376,7.48529 v 0.76236 0.76237 h 0.762367 0.762366 v -0.76237 -0.76236 h -0.762366 z" /></g></svg>
